# xmcd
#
# Track frame offsets: 
#        150
#        8863
#        23687
#        36682
#        44486
#        52940
#        66057
#        71754
#        81739
#        91975
#        99132
#        116192
#        123250
#        137199
#        153157
#
# Disc length: 2227 seconds
#
# Revision: 1
# Processed by: cddbd v1.5.2PL0 Copyright (c) Steve Scherf et al.
# Submitted via: ExactAudioCopyFreeDBPlugin 1.0
#
DISCID=cc08b10f
DTITLE=Alan Jackson - Precious Memories Collection - Disc 1
DYEAR=2008
DGENRE=Gospel
TTITLE0=Blessed Assurance
TTITLE1=Softly And Tenderly
TTITLE2=I Love To Tell The Story
TTITLE3=When We All Get To Heaven
TTITLE4='Tis So Sweet To Trust In Jesus
TTITLE5=In The Garden
TTITLE6=Are You Washed In The Blood
TTITLE7=I'll Fly Away
TTITLE8=What A Friend We Have In Jesus
TTITLE9=Standing On The Promises
TTITLE10=Turn Your Eyes Upon Jesus
TTITLE11=Leaning On The Everlasting Arms
TTITLE12=The Old Rugged Cross
TTITLE13=How Great Thou Art
TTITLE14=I Want To Stroll Over Heaven With You
EXTD=YEAR: 2008
EXTT0=
EXTT1=
EXTT2=
EXTT3=
EXTT4=
EXTT5=
EXTT6=
EXTT7=
EXTT8=
EXTT9=
EXTT10=
EXTT11=
EXTT12=
EXTT13=
EXTT14=
PLAYORDER=
